<?xml version="1.0" standalone="no"?>
<!DOCTYPE svg PUBLIC "-//W3C//DTD SVG 20010904//EN"
 "http://www.w3.org/TR/2001/REC-SVG-20010904/DTD/svg10.dtd">
<svg version="1.0" xmlns="http://www.w3.org/2000/svg"
 width="800.000000pt" height="600.000000pt" viewBox="0 0 800.000000 600.000000"
 preserveAspectRatio="xMidYMid meet">

<g transform="translate(0.000000,600.000000) scale(0.100000,-0.100000)"
fill="#000000" stroke="none">
<path d="M3571 4409 c-251 -43 -480 -228 -574 -462 -45 -112 -57 -198 -57
-412 0 -184 -1 -195 -19 -195 -10 0 -23 -6 -29 -13 -6 -7 -25 -125 -42 -263
l-32 -249 -33 -35 c-78 -82 -100 -177 -65 -279 22 -67 87 -187 151 -283 31
-45 39 -66 39 -101 0 -59 26 -142 60 -197 16 -25 80 -95 143 -157 88 -87 128
-119 179 -143 153 -72 332 -39 450 82 l49 50 22 -20 c99 -91 274 -91 374 0
l21 20 42 -46 c58 -62 164 -114 250 -122 72 -7 161 11 232 47 57 29 279 252
308 309 29 57 50 134 50 184 0 31 13 59 60 132 33 51 80 133 103 181 36 76 42
97 42 153 0 53 -6 75 -30 118 -16 30 -42 64 -57 78 -28 23 -29 28 -58 261 -36
290 -35 281 -64 289 l-24 6 -5 226 c-4 255 -12 294 -77 427 -75 153 -196 270
-355 346 -150 72 -154 72 -600 75 -220 1 -424 -2 -454 -7z m934 -101 c107 -36
191 -89 273 -170 97 -96 171 -228 188 -336 l7 -42 -972 0 -971 0 0 21 c0 35
50 171 82 224 73 121 178 213 310 275 120 56 153 59 598 57 l405 -2 80 -27z
m475 -917 c0 -113 4 -125 45 -133 18 -3 22 -21 42 -178 30 -238 32 -218 -23
-222 -31 -2 -51 -9 -58 -20 -16 -25 4 -52 40 -56 113 -11 203 -109 191 -208
-6 -57 -57 -160 -140 -286 -61 -93 -65 -101 -69 -170 -7 -106 -38 -160 -167
-289 -138 -139 -184 -164 -301 -164 -73 0 -93 4 -142 28 -74 36 -142 111 -134
147 17 71 17 138 1 200 -54 210 -188 346 -306 311 -143 -43 -274 -321 -228
-484 9 -35 8 -43 -17 -79 -78 -111 -236 -157 -371 -106 -48 18 -78 41 -174
135 -140 137 -168 184 -178 292 -6 73 -10 82 -70 176 -87 136 -141 250 -141
297 0 46 22 103 53 137 27 29 93 60 129 61 26 0 58 22 58 40 0 22 -34 40 -75
40 -43 0 -44 1 -40 28 7 37 45 344 45 360 0 6 10 12 23 12 41 0 47 17 47 132
l0 108 980 0 980 0 0 -109z"/>
<path d="M3192 3328 c-8 -8 -12 -54 -12 -142 0 -148 13 -192 69 -239 77 -65
189 -59 346 17 147 72 243 183 261 304 11 74 22 72 -335 72 -233 0 -320 -3
-329 -12z"/>
<path d="M4150 3325 c-17 -21 -8 -92 19 -148 64 -133 249 -253 418 -272 71 -8
119 4 165 43 55 46 68 91 68 237 0 89 -4 135 -12 143 -9 9 -96 12 -329 12
-270 0 -318 -2 -329 -15z"/>
<path d="M3895 2756 c-67 -17 -127 -44 -238 -109 -132 -78 -194 -107 -240
-115 -46 -8 -68 -33 -51 -59 28 -45 115 -18 315 96 179 104 239 125 340 119
87 -5 133 -24 329 -137 163 -94 241 -118 274 -85 31 31 14 50 -59 70 -33 8
-109 43 -170 78 -266 153 -355 178 -500 142z"/>
<path d="M3295 2271 c-154 -71 -150 -280 7 -346 47 -19 89 -19 136 0 160 67
160 283 0 350 -49 20 -94 19 -143 -4z"/>
<path d="M4555 2271 c-154 -71 -150 -280 7 -346 47 -19 89 -19 136 0 160 67
160 283 0 350 -49 20 -94 19 -143 -4z"/>
</g>
</svg>
